<?xml version="1.0" encoding="UTF-8" standalone="no"?>
<svg
   xmlns:dc="http://purl.org/dc/elements/1.1/"
   xmlns:cc="http://creativecommons.org/ns#"
   xmlns:rdf="http://www.w3.org/1999/02/22-rdf-syntax-ns#"
   xmlns:svg="http://www.w3.org/2000/svg"
   xmlns="http://www.w3.org/2000/svg"
   viewBox="0 0 120 120"
   height="120"
   width="120"
   xml:space="preserve"
   id="svg4336"
   version="1.1"><metadata
     id="metadata4342"><rdf:RDF><cc:Work
         rdf:about=""><dc:format>image/svg+xml</dc:format><dc:type
           rdf:resource="http://purl.org/dc/dcmitype/StillImage" /><dc:title></dc:title></cc:Work></rdf:RDF></metadata><defs
     id="defs4340"><radialGradient
       id="radialGradient4362"
       spreadMethod="pad"
       gradientTransform="matrix(27.154079,0,0,-27.154079,139.19807,65.775001)"
       gradientUnits="userSpaceOnUse"
       r="1"
       cy="0"
       cx="0"
       fy="0"
       fx="0"><stop
         id="stop4358"
         offset="0"
         style="stop-opacity:1;stop-color:#ec2227" /><stop
         id="stop4360"
         offset="1"
         style="stop-opacity:1;stop-color:#321415" /></radialGradient><radialGradient
       id="radialGradient4382"
       spreadMethod="pad"
       gradientTransform="matrix(52.007076,0,0,-52.007076,131.21657,119.00029)"
       gradientUnits="userSpaceOnUse"
       r="1"
       cy="0"
       cx="0"
       fy="0"
       fx="0"><stop
         id="stop4378"
         offset="0"
         style="stop-opacity:1;stop-color:#ec2227" /><stop
         id="stop4380"
         offset="1"
         style="stop-opacity:1;stop-color:#321415" /></radialGradient><linearGradient
       id="linearGradient4402"
       spreadMethod="pad"
       gradientTransform="matrix(-30.969683,30.969683,30.969683,30.969683,139.12646,50.672722)"
       gradientUnits="userSpaceOnUse"
       y2="0"
       x2="1"
       y1="0"
       x1="0"><stop
         id="stop4398"
         offset="0"
         style="stop-opacity:1;stop-color:#5f6060" /><stop
         id="stop4400"
         offset="1"
         style="stop-opacity:1;stop-color:#e5e6e5" /></linearGradient><linearGradient
       id="linearGradient4424"
       spreadMethod="pad"
       gradientTransform="matrix(55.687431,0,0,-55.687431,129.98773,22.378069)"
       gradientUnits="userSpaceOnUse"
       y2="0"
       x2="1"
       y1="0"
       x1="0"><stop
         id="stop4418"
         offset="0"
         style="stop-opacity:1;stop-color:#027bc1" /><stop
         id="stop4420"
         offset="0.81819"
         style="stop-opacity:1;stop-color:#1fc4f4" /><stop
         id="stop4422"
         offset="1"
         style="stop-opacity:1;stop-color:#1fc4f4" /></linearGradient><linearGradient
       id="linearGradient4448"
       spreadMethod="pad"
       gradientTransform="matrix(58.191917,0,0,-58.191917,5.0481901,22.378069)"
       gradientUnits="userSpaceOnUse"
       y2="0"
       x2="1"
       y1="0"
       x1="0"><stop
         id="stop4440"
         offset="0"
         style="stop-opacity:1;stop-color:#1c407d" /><stop
         id="stop4442"
         offset="0.0996414"
         style="stop-opacity:1;stop-color:#1c407d" /><stop
         id="stop4444"
         offset="0.50264328"
         style="stop-opacity:1;stop-color:#027bc1" /><stop
         id="stop4446"
         offset="1"
         style="stop-opacity:1;stop-color:#027bc1" /></linearGradient><clipPath
       id="clipPath4458"
       clipPathUnits="userSpaceOnUse"><path
         id="path4456"
         d="M 0,140.382 H 265 V 0 H 0 Z" /></clipPath></defs><g
     transform="matrix(1.3333333,0,0,-1.3333333,-111.46248,188.61605)"
     id="g4344"><g
       id="g4346"><g
         id="g4348"><g
           id="g4354"><g
             id="g4356"><path
               id="path4364"
               style="fill:url(#radialGradient4362);stroke:none"
               d="m 159.68,92.663 3.751,-3.75 3.75,3.75 -3.75,3.751 z m -27.046,-27.284 1.956,-1.956 c 3.14,-3.14 5.724,-2.819 8.628,0.087 v 0 l 17.501,17.514 -3.464,3.464 3.606,3.605 -2.748,2.749 z m 27.488,20.088 2.547,-2.546 2.546,2.546 -2.546,2.546 z" /></g></g></g></g><g
       id="g4366"><g
         id="g4368"><g
           id="g4374"><g
             id="g4376"><path
               id="path4384"
               style="fill:url(#radialGradient4382);stroke:none"
               d="m 123.206,132.052 6.211,-6.21 5.721,5.724 -6.207,6.207 z m 20.17,-9.552 6.207,-6.206 6.223,6.227 -6.203,6.201 z m -29.652,0.075 6.215,-6.215 5.861,5.865 -6.21,6.21 z m 9.854,-4.788 6.214,-6.215 5.861,5.866 -6.21,6.21 z m 12.416,-2.667 6.209,-6.21 5.721,5.724 -6.206,6.207 z m -27.561,2.161 -0.004,0.003 -11.02,-11.013 C 88.781,97.642 89.207,90.369 97.41,82.167 v 0 l 1.733,-1.733 c -2.623,3.5 -4.191,10.926 1.848,16.966 v 0 l 13.657,13.664 -0.003,0.004 2.404,2.405 -6.211,6.211 z m 7.318,-7.318 -0.001,0.001 -11.02,-11.013 c -8.63,-8.629 -8.202,-15.903 0,-24.104 v 0 l 1.733,-1.734 c -2.623,3.5 -4.191,10.927 1.848,16.966 v 0 l 13.658,13.666 h -10e-4 l 6.626,6.629 -6.215,6.215 z m 14.401,-0.678 -4.052,-4.05 -2.814,-2.814 -0.001,10e-4 -11.021,-11.013 c -8.628,-8.629 -8.201,-15.903 0.001,-24.104 v 0 l 1.733,-1.734 c -2.623,3.5 -4.192,10.927 1.848,16.966 v 0 l 13.658,13.666 h -0.001 l 2.814,2.815 0.001,-0.002 6.003,6.007 -6.215,6.215 z" /></g></g></g></g><g
       id="g4386"><g
         id="g4388"><g
           id="g4394"><g
             id="g4396"><path
               id="path4404"
               style="fill:url(#linearGradient4402);stroke:none"
               d="M 114.065,77.791 130.71,61.14 c 2.279,-2.28 6.954,-3.184 9.159,-0.979 v 0 c -2.543,-0.682 -4.539,0.909 -6.085,2.456 v 0 l -17.952,17.946 c -0.753,-0.909 -1.332,-1.839 -1.767,-2.772 m -1.007,-3.589 c -0.054,-0.493 -0.074,-0.978 -0.067,-1.454 v 0 l 0.616,-0.616 0.054,-0.06 0.127,-0.145 12.623,-12.629 c 2.28,-2.279 6.955,-3.185 9.16,-0.98 v 0 c -2.544,-0.681 -4.538,0.91 -6.085,2.456 v 0 L 113.604,76.65 c -0.282,-0.825 -0.459,-1.645 -0.546,-2.448 m 4.64,-12.325 4.415,-4.421 c 2.281,-2.279 6.954,-3.185 9.159,-0.98 v 0 c -2.543,-0.681 -4.537,0.911 -6.084,2.456 v 0 L 113.16,70.953 c 0.531,-3.105 1.807,-6.342 4.538,-9.076" /></g></g></g></g></g></svg>