<?xml version="1.0" encoding="UTF-8" standalone="no"?>
<svg
   xmlns:dc="http://purl.org/dc/elements/1.1/"
   xmlns:cc="http://creativecommons.org/ns#"
   xmlns:rdf="http://www.w3.org/1999/02/22-rdf-syntax-ns#"
   xmlns:svg="http://www.w3.org/2000/svg"
   xmlns="http://www.w3.org/2000/svg"
   viewBox="0 0 119.99998 120.00002"
   height="120"
   width="120"
   xml:space="preserve"
   id="svg29"
   version="1.1"><metadata
     id="metadata35"><rdf:RDF><cc:Work
         rdf:about=""><dc:format>image/svg+xml</dc:format><dc:type
           rdf:resource="http://purl.org/dc/dcmitype/StillImage" /><dc:title></dc:title></cc:Work></rdf:RDF></metadata><defs
     id="defs33"><clipPath
       id="clipPath51"
       clipPathUnits="userSpaceOnUse"><path
         id="path49"
         d="m 1401.5,825.703 -152.63,96.801 158.31,158.096 159.86,-161.1 z" /></clipPath><clipPath
       id="clipPath155"
       clipPathUnits="userSpaceOnUse"><path
         id="path153"
         d="m 532,295.602 c 11.723,6.601 20.922,14.8 27.598,24.402 6.664,9.598 11.203,20.098 13.597,31.598 2.403,11.398 3.606,22 3.606,31.601 0,9.598 -1.203,20.098 -3.606,31.598 -2.394,11.402 -6.933,22 -13.597,31.601 -6.676,9.598 -15.875,17.7 -27.598,24.399 -11.738,6.601 -26.676,10 -44.801,10 H 163.996 c -18.672,0 -33.734,-3.399 -45.199,-10 C 107.32,464.102 98.2617,456 91.6016,446.402 84.9258,436.801 80.3984,426.203 77.9961,414.801 c -2.3984,-11.5 -3.5977,-22 -3.5977,-31.598 0,-9.601 1.1993,-20.203 3.5977,-31.601 2.4023,-11.5 6.9297,-22 13.6055,-31.598 6.6601,-9.602 15.7184,-17.801 27.1954,-24.402 11.465,-6.7 26.527,-10 45.199,-10 h 323.203 c 18.125,0 33.063,3.3 44.801,10 z m 119.199,87.601 c 0,-20.301 -3.34,-40.699 -10,-61.203 -6.676,-20.598 -16.402,-39.199 -29.199,-56 -12.805,-16.797 -28.277,-30.598 -46.402,-41.199 -18.137,-10.699 -38.676,-16 -61.602,-16 H 139.195 c -21.875,1 -41.3356,7 -58.3942,18 C 63.7227,237.699 49.1992,251.402 37.1992,268 25.1992,284.5 16,302.902 9.59766,323.203 3.19531,343.402 0,363.402 0,383.203 c 0,20.199 3.32422,40.598 10,61.199 6.6602,20.5 16.3984,39.2 29.1992,56 12.8008,16.801 28.2617,30.5 46.3985,41.2 18.1253,10.601 38.6643,16 61.6013,16 H 512 c 21.859,-1.102 41.324,-7.102 58.398,-18 17.063,-11 31.602,-24.7 43.598,-41.2 12.004,-16.601 21.203,-35 27.606,-55.199 6.394,-20.301 9.597,-40.301 9.597,-60 z" /></clipPath><linearGradient
       id="linearGradient165"
       spreadMethod="pad"
       gradientTransform="matrix(651.201,0,0,-651.201,0,383.201)"
       gradientUnits="userSpaceOnUse"
       y2="0"
       x2="1"
       y1="0"
       x1="0"><stop
         id="stop157"
         offset="0"
         style="stop-opacity:1;stop-color:#1c407d" /><stop
         id="stop159"
         offset="0.446662"
         style="stop-opacity:1;stop-color:#1c407d" /><stop
         id="stop161"
         offset="0.69433693"
         style="stop-opacity:1;stop-color:#047bc1" /><stop
         id="stop163"
         offset="1"
         style="stop-opacity:1;stop-color:#047bc1" /></linearGradient><clipPath
       id="clipPath177"
       clipPathUnits="userSpaceOnUse"><path
         id="path175"
         d="m 2085.58,410.402 c 7.46,-7.5 11.2,-16.601 11.2,-27.199 0,-10.699 -3.74,-19.801 -11.2,-27.203 -7.47,-7.5 -16.53,-11.199 -27.2,-11.199 h -398.4 c -10.67,0 -19.73,3.699 -27.2,11.199 -7.47,7.402 -11.2,16.504 -11.2,27.203 0,10.598 3.73,19.699 11.2,27.199 7.47,7.399 16.53,11.2 27.2,11.2 h 398.4 c 10.67,0 19.73,-3.801 27.2,-11.2 z m -434.4,70.399 c -18.68,0 -33.74,-3.399 -45.2,-10 -11.47,-6.699 -20.54,-14.801 -27.2,-24.399 -6.68,-9.601 -11.2,-20.199 -13.6,-31.601 -2.4,-11.5 -3.6,-22 -3.6,-31.598 0,-9.601 1.2,-20.203 3.6,-31.601 2.4,-11.5 6.92,-22 13.6,-31.598 6.66,-9.602 15.73,-17.801 27.2,-24.402 11.46,-6.7 26.52,-10 45.2,-10 h 440.8 c 10.66,0 19.72,-3.801 27.2,-11.2 7.46,-7.5 11.2,-16.601 11.2,-27.199 0,-10.703 -3.74,-19.801 -11.2,-27.199 -7.48,-7.5 -16.54,-11.203 -27.2,-11.203 h -466.4 c -21.88,0 -41.34,5.301 -58.4,16 -17.08,10.601 -31.6,24.402 -43.6,41.199 -12,16.801 -21.2,35.602 -27.6,56.402 -6.4,20.801 -9.6,41 -9.6,60.801 0,20.199 3.32,40.598 10,61.199 6.66,20.5 16.4,39.2 29.2,56 12.8,16.801 28.26,30.5 46.4,41.2 18.12,10.601 38.66,16 61.6,16 h 458.4 c 10.66,0 19.72,-3.801 27.2,-11.2 7.46,-7.5 11.2,-16.601 11.2,-27.199 0,-10.703 -3.74,-19.801 -11.2,-27.203 -7.48,-7.5 -16.54,-11.199 -27.2,-11.199 z" /></clipPath><linearGradient
       id="linearGradient185"
       spreadMethod="pad"
       gradientTransform="matrix(644.004,0,0,-644.004,1486.38,383.201)"
       gradientUnits="userSpaceOnUse"
       y2="0"
       x2="1"
       y1="0"
       x1="0"><stop
         id="stop179"
         offset="0"
         style="stop-opacity:1;stop-color:#0078ba" /><stop
         id="stop181"
         offset="0.57776751"
         style="stop-opacity:1;stop-color:#4fb2e0" /><stop
         id="stop183"
         offset="1"
         style="stop-opacity:1;stop-color:#4fb2e0" /></linearGradient></defs><g
     transform="matrix(1.3333333,0,0,-1.3333333,-127.53464,203.53334)"
     id="g37"><path
       d="m 140.85,128.93 c -11.569,0 -20.948,-9.38 -20.948,-20.95 0,-11.5698 9.379,-20.9398 20.948,-20.9398 11.569,0 20.947,9.37 20.947,20.9398 0,11.57 -9.378,20.95 -20.947,20.95 z m 0,-6.22 c 8.118,0 14.723,-6.61 14.723,-14.73 0,-8.1097 -6.605,-14.7198 -14.723,-14.7198 -8.119,0 -14.723,6.6101 -14.723,14.7198 0,8.12 6.604,14.73 14.723,14.73"
       style="fill:#20c4f4;fill-opacity:1;fill-rule:nonzero;stroke:none;stroke-width:0.1"
       id="path41" /><path
       d="m 140.914,118.53 c -5.784,0 -10.474,-4.69 -10.474,-10.47 0,-5.79 4.69,-10.4799 10.474,-10.4799 5.785,0 10.474,4.6899 10.474,10.4799 0,5.78 -4.689,10.47 -10.474,10.47 z m 0,-4.15 c 3.487,0 6.325,-2.83 6.325,-6.32 0,-3.49 -2.838,-6.33 -6.325,-6.33 -3.487,0 -6.324,2.84 -6.324,6.33 0,3.49 2.837,6.32 6.324,6.32"
       style="fill:#20c4f4;fill-opacity:1;fill-rule:nonzero;stroke:none;stroke-width:0.1"
       id="path43" /><g
       transform="scale(0.1)"
       id="g45"><g
         id="g47"
         clip-path="url(#clipPath51)"><path
           d="m 1408.5,1289.3 c -115.69,0 -209.48,-93.8 -209.48,-209.5 0,-115.698 93.79,-209.398 209.48,-209.398 115.69,0 209.47,93.7 209.47,209.398 0,115.7 -93.78,209.5 -209.47,209.5 z m 0,-62.2 c 81.18,0 147.23,-66.1 147.23,-147.3 0,-81.097 -66.05,-147.198 -147.23,-147.198 -81.19,0 -147.23,66.101 -147.23,147.198 0,81.2 66.04,147.3 147.23,147.3"
           style="fill:#a01e21;fill-opacity:1;fill-rule:nonzero;stroke:none"
           id="path53" /><path
           d="m 1409.14,1185.3 c -57.84,0 -104.74,-46.9 -104.74,-104.7 0,-57.9 46.9,-104.799 104.74,-104.799 57.85,0 104.74,46.899 104.74,104.799 0,57.8 -46.89,104.7 -104.74,104.7 z m 0,-41.5 c 34.87,0 63.25,-28.3 63.25,-63.2 0,-34.9 -28.38,-63.3 -63.25,-63.3 -34.87,0 -63.24,28.4 -63.24,63.3 0,34.9 28.37,63.2 63.24,63.2"
           style="fill:#c72127;fill-opacity:1;fill-rule:nonzero;stroke:none"
           id="path55" /></g></g><path
       d="m 143.978,107.99 c 0,-1.73 -1.401,-3.13 -3.128,-3.13 -1.727,0 -3.128,1.4 -3.128,3.13 0,1.72 1.401,3.13 3.128,3.13 1.727,0 3.128,-1.41 3.128,-3.13"
       style="fill:#d34135;fill-opacity:1;fill-rule:nonzero;stroke:none;stroke-width:0.1"
       id="path57" /><path
       d="m 169.132,128.23 c -2.067,-2.06 -5.413,-2.05 -7.474,0.01 -2.058,2.07 -2.051,5.42 0.017,7.48 2.064,2.06 5.412,2.05 7.471,-0.02 2.059,-2.07 2.053,-5.41 -0.014,-7.47"
       style="fill:#20c4f4;fill-opacity:1;fill-rule:nonzero;stroke:none;stroke-width:0.1"
       id="path233" /><path
       d="m 146.027,142.43 c -0.009,-2.92 -2.376,-5.28 -5.294,-5.27 -2.919,0 -5.281,2.37 -5.275,5.29 0.004,2.92 2.374,5.28 5.294,5.28 2.916,-0.01 5.28,-2.38 5.275,-5.3"
       style="fill:#20c4f4;fill-opacity:1;fill-rule:nonzero;stroke:none;stroke-width:0.1"
       id="path235" /><path
       d="m 119.644,136.13 c 2.059,-2.06 2.056,-5.41 -0.011,-7.47 -2.07,-2.06 -5.414,-2.05 -7.475,0.01 -2.059,2.07 -2.053,5.42 0.015,7.48 2.068,2.06 5.411,2.05 7.471,-0.02"
       style="fill:#20c4f4;fill-opacity:1;fill-rule:nonzero;stroke:none;stroke-width:0.1"
       id="path237" /><path
       d="m 105.442,113.03 c 2.92,-0.01 5.281,-2.38 5.278,-5.29 -0.008,-2.92 -2.376,-5.29 -5.297,-5.28 -2.918,0.01 -5.279,2.37 -5.272,5.29 0.005,2.92 2.374,5.28 5.291,5.28"
       style="fill:#20c4f4;fill-opacity:1;fill-rule:nonzero;stroke:none;stroke-width:0.1"
       id="path239" /><path
       d="m 111.74,86.65 c 2.07,2.05 5.415,2.05 7.475,-0.0199 2.058,-2.0598 2.052,-5.4098 -0.017,-7.4699 -2.066,-2.0602 -5.411,-2.05 -7.469,0.0101 -2.061,2.0699 -2.056,5.4199 0.011,7.4797"
       style="fill:#20c4f4;fill-opacity:1;fill-rule:nonzero;stroke:none;stroke-width:0.1"
       id="path241" /><path
       d="m 134.848,72.45 c 0.008,2.9102 2.375,5.2801 5.294,5.2703 2.918,-0.0101 5.279,-2.3801 5.271,-5.2902 -0.004,-2.9199 -2.373,-5.2801 -5.291,-5.2801 -2.919,0.0102 -5.28,2.3801 -5.274,5.3"
       style="fill:#20c4f4;fill-opacity:1;fill-rule:nonzero;stroke:none;stroke-width:0.1"
       id="path243" /><path
       d="m 161.228,78.7402 c -2.059,2.07 -2.052,5.4098 0.014,7.47 2.069,2.0597 5.415,2.0597 7.473,-0.0102 2.058,-2.0699 2.054,-5.4098 -0.014,-7.4699 -2.067,-2.0598 -5.413,-2.0598 -7.473,0.0101"
       style="fill:#20c4f4;fill-opacity:1;fill-rule:nonzero;stroke:none;stroke-width:0.1"
       id="path245" /><path
       d="m 179.113,103.54 c -2.071,-2.06 -5.412,-2.05 -7.472,0.01 -2.062,2.07 -2.052,5.42 0.014,7.48 2.067,2.06 5.413,2.05 7.471,-0.02 2.061,-2.06 2.053,-5.41 -0.013,-7.47"
       style="fill:#20c4f4;fill-opacity:1;fill-rule:nonzero;stroke:none;stroke-width:0.1"
       id="path247" /><path
       d="m 154.08,132.61 c -1.033,-1.03 -2.706,-1.03 -3.736,0.01 -1.029,1.03 -1.027,2.71 0.007,3.74 1.033,1.03 2.706,1.02 3.737,-0.01 1.03,-1.03 1.026,-2.71 -0.008,-3.74"
       style="fill:#047bc1;fill-opacity:1;fill-rule:nonzero;stroke:none;stroke-width:0.1"
       id="path249" /><path
       d="m 132.351,134.97 c -0.003,-1.46 -1.187,-2.64 -2.647,-2.64 -1.46,0.01 -2.64,1.19 -2.637,2.65 0.003,1.46 1.186,2.64 2.647,2.64 1.46,-0.01 2.64,-1.19 2.637,-2.65"
       style="fill:#047bc1;fill-opacity:1;fill-rule:nonzero;stroke:none;stroke-width:0.1"
       id="path251" /><path
       d="m 115.316,121.27 c 1.033,-1.03 1.029,-2.7 -0.006,-3.73 -1.033,-1.03 -2.705,-1.03 -3.735,0 -1.032,1.04 -1.027,2.71 0.008,3.74 1.033,1.03 2.703,1.03 3.733,-0.01"
       style="fill:#047bc1;fill-opacity:1;fill-rule:nonzero;stroke:none;stroke-width:0.1"
       id="path253" /><path
       d="m 112.958,99.5402 c 1.461,0 2.642,-1.1902 2.637,-2.6402 -0.002,-1.4598 -1.187,-2.6398 -2.647,-2.6398 -1.458,0 -2.641,1.1898 -2.635,2.65 0.003,1.4601 1.185,2.6398 2.645,2.63"
       style="fill:#047bc1;fill-opacity:1;fill-rule:nonzero;stroke:none;stroke-width:0.1"
       id="path255" /><path
       d="m 126.657,82.5102 c 1.032,1.03 2.707,1.03 3.736,-0.0098 1.029,-1.0301 1.026,-2.7004 -0.007,-3.7305 -1.034,-1.0297 -2.707,-1.0297 -3.737,0 -1.031,1.0403 -1.028,2.7102 0.008,3.7403"
       style="fill:#047bc1;fill-opacity:1;fill-rule:nonzero;stroke:none;stroke-width:0.1"
       id="path257" /><path
       d="m 148.388,80.15 c 0,1.4602 1.185,2.6402 2.645,2.6402 1.46,-0.0101 2.638,-1.1902 2.637,-2.65 -0.003,-1.4601 -1.187,-2.6398 -2.647,-2.63 -1.459,0 -2.64,1.18 -2.635,2.6398"
       style="fill:#047bc1;fill-opacity:1;fill-rule:nonzero;stroke:none;stroke-width:0.1"
       id="path259" /><path
       d="m 165.42,93.85 c -1.031,1.0301 -1.028,2.7102 0.006,3.7301 1.035,1.0301 2.706,1.0301 3.736,0 1.029,-1.0399 1.028,-2.7098 -0.008,-3.7399 -1.034,-1.03 -2.705,-1.03 -3.734,0.0098"
       style="fill:#047bc1;fill-opacity:1;fill-rule:nonzero;stroke:none;stroke-width:0.1"
       id="path261" /><path
       d="m 167.777,115.58 c -1.457,0 -2.638,1.19 -2.636,2.64 0.004,1.46 1.187,2.65 2.647,2.64 1.46,0 2.639,-1.19 2.635,-2.64 0,-1.46 -1.184,-2.65 -2.646,-2.64"
       style="fill:#047bc1;fill-opacity:1;fill-rule:nonzero;stroke:none;stroke-width:0.1"
       id="path263" /></g></svg>