<?xml version="1.0" encoding="UTF-8" standalone="no"?>
<svg
   xmlns:dc="http://purl.org/dc/elements/1.1/"
   xmlns:cc="http://creativecommons.org/ns#"
   xmlns:rdf="http://www.w3.org/1999/02/22-rdf-syntax-ns#"
   xmlns:svg="http://www.w3.org/2000/svg"
   xmlns="http://www.w3.org/2000/svg"
   viewBox="0 0 160 160"
   height="160"
   width="160"
   xml:space="preserve"
   id="svg29"
   version="1.1"><metadata
     id="metadata35"><rdf:RDF><cc:Work
         rdf:about=""><dc:format>image/svg+xml</dc:format><dc:type
           rdf:resource="http://purl.org/dc/dcmitype/StillImage" /><dc:title></dc:title></cc:Work></rdf:RDF></metadata><defs
     id="defs33"><linearGradient
       id="linearGradient55"
       spreadMethod="pad"
       gradientTransform="matrix(0.3303223,18.925018,-18.925018,0.3303223,293.40207,298.54611)"
       gradientUnits="userSpaceOnUse"
       y2="0"
       x2="1"
       y1="0"
       x1="0"><stop
         id="stop51"
         offset="0"
         style="stop-opacity:1;stop-color:#007ec5" /><stop
         id="stop53"
         offset="1"
         style="stop-opacity:1;stop-color:#00c0ed" /></linearGradient><linearGradient
       id="linearGradient75"
       spreadMethod="pad"
       gradientTransform="matrix(2.7860043,159.6113,-159.6113,2.7860043,364.22665,396.58569)"
       gradientUnits="userSpaceOnUse"
       y2="0"
       x2="1"
       y1="0"
       x1="0"><stop
         id="stop71"
         offset="0"
         style="stop-opacity:1;stop-color:#007ec5" /><stop
         id="stop73"
         offset="1"
         style="stop-opacity:1;stop-color:#00c0ed" /></linearGradient><linearGradient
       id="linearGradient95"
       spreadMethod="pad"
       gradientTransform="matrix(0.3261117,18.679504,-18.679504,0.3261117,429.72345,225.29692)"
       gradientUnits="userSpaceOnUse"
       y2="0"
       x2="1"
       y1="0"
       x1="0"><stop
         id="stop91"
         offset="0"
         style="stop-opacity:1;stop-color:#007ec5" /><stop
         id="stop93"
         offset="1"
         style="stop-opacity:1;stop-color:#00c0ed" /></linearGradient><linearGradient
       id="linearGradient115"
       spreadMethod="pad"
       gradientTransform="matrix(0.3299248,18.903107,-18.903107,0.3299248,499.41495,187.5108)"
       gradientUnits="userSpaceOnUse"
       y2="0"
       x2="1"
       y1="0"
       x1="0"><stop
         id="stop111"
         offset="0"
         style="stop-opacity:1;stop-color:#007ec5" /><stop
         id="stop113"
         offset="1"
         style="stop-opacity:1;stop-color:#00c0ed" /></linearGradient><clipPath
       id="clipPath125"
       clipPathUnits="userSpaceOnUse"><path
         id="path123"
         d="M 0,612 H 792 V 0 H 0 Z" /></clipPath><linearGradient
       id="linearGradient255"
       spreadMethod="pad"
       gradientTransform="matrix(-326.67047,225.63072,225.63072,326.67047,605.24286,196.58757)"
       gradientUnits="userSpaceOnUse"
       y2="0"
       x2="1"
       y1="0"
       x1="0"><stop
         id="stop243"
         offset="0"
         style="stop-opacity:1;stop-color:#c6262f" /><stop
         id="stop245"
         offset="0.00128806"
         style="stop-opacity:1;stop-color:#c6262f" /><stop
         id="stop247"
         offset="0.3136"
         style="stop-opacity:1;stop-color:#d64b43" /><stop
         id="stop249"
         offset="0.5951"
         style="stop-opacity:1;stop-color:#e26255" /><stop
         id="stop251"
         offset="0.8334"
         style="stop-opacity:1;stop-color:#ea6f61" /><stop
         id="stop253"
         offset="1"
         style="stop-opacity:1;stop-color:#ed7466" /></linearGradient><clipPath
       id="clipPath265"
       clipPathUnits="userSpaceOnUse"><path
         id="path263"
         d="M 0,612 H 792 V 0 H 0 Z" /></clipPath><clipPath
       id="clipPath281"
       clipPathUnits="userSpaceOnUse"><path
         id="path279"
         d="M 0,612 H 792 V 0 H 0 Z" /></clipPath></defs><g
     transform="matrix(1.3333333,0,0,-1.3333333,-464.33332,522.99999)"
     id="g37"><g
       id="g231"><g
         id="g233"><g
           id="g239"><g
             id="g241"><path
               id="path257"
               style="fill:url(#linearGradient255);stroke:none"
               d="m 428.8,388 c 9.6,-17.1 7.2,-38.3 3.1,-54.2 v 0 c -2,-7.3 -5.2,-15 -4.2,-22.2 v 0 c -6.9,-0.6 -13.1,-5 -19.2,-7.1 v 0 c -18.1,-6.2 -33.9,-9.1 -56.5,-4.7 v 0 c 24.6,-17.2 36.6,-13 63.7,-0.1 v 0 c -0.5,-0.6 -0.7,-1.3 -1.3,-1.9 v 0 c 1.4,0.4 2.4,1.7 3.4,2.2 v 0 c -0.4,-0.7 -0.9,-1.5 -1.4,-1.9 v 0 c 2.2,0.6 3.7,2.3 5.9,3.9 v 0 c -2.4,-2.1 -4.2,-5 -6,-8 v 0 c -1.5,-2.5 -3.1,-4.8 -5.1,-6.9 v 0 l -2.9,-2.9 c -1.4,-1.3 -2.9,-2.5 -5.1,-2.9 v 0 c 1.7,-0.1 3.6,0.3 6.5,1.9 v 0 c -1.6,-2.4 -7.1,-6.2 -9.9,-7.2 v 0 c 10.5,2.6 19.2,15.9 25.7,18 v 0 c 18.3,5.9 13.8,3.4 27,14.2 v 0 c 1.6,1.3 3,1 5.1,0.8 v 0 c 1.1,-0.1 2.1,-0.3 3.2,-0.5 v 0 c 0.8,-0.2 1.4,-0.4 2.2,-0.8 v 0 l 1.8,-0.9 c -1.9,4.5 -2.3,4.1 -5.9,6 v 0 c -2.3,1.3 -3.3,3.8 -6.2,4.9 v 0 c -2.506,0.917 -4.724,-0.269 -6.538,-1.455 v 0 c -3.327,-2.177 -5.292,-4.353 -5.162,6.455 v 0 c 0.1,8 4.2,14.4 6.4,22 v 0 c 1.1,3.8 2.3,7.6 2.4,11.5 v 0 c 0.1,2.3 0,4.7 -0.4,7 v 0 c -2,11.2 -8.4,21.5 -19.7,24.8 v 0 c -0.5,0.15 -0.775,0.225 -0.9,0.225 v 0 c -0.125,0 -0.1,-0.075 0,-0.225" /></g></g></g></g></g></svg>