<?xml version="1.0" encoding="UTF-8" standalone="no"?>
<svg
   xmlns:dc="http://purl.org/dc/elements/1.1/"
   xmlns:cc="http://creativecommons.org/ns#"
   xmlns:rdf="http://www.w3.org/1999/02/22-rdf-syntax-ns#"
   xmlns:svg="http://www.w3.org/2000/svg"
   xmlns="http://www.w3.org/2000/svg"
   viewBox="0 0 191.99998 192.00001"
   height="120"
   width="120"
   xml:space="preserve"
   id="svg3732"
   version="1.1"><metadata
     id="metadata3738"><rdf:RDF><cc:Work
         rdf:about=""><dc:format>image/svg+xml</dc:format><dc:type
           rdf:resource="http://purl.org/dc/dcmitype/StillImage" /><dc:title></dc:title></cc:Work></rdf:RDF></metadata><defs
     id="defs3736"><clipPath
       id="clipPath3758"
       clipPathUnits="userSpaceOnUse"><path
         id="path3756"
         d="m 4075.03,180 c 0,-9.648 -1.08,-20.359 -3.21,-32.148 -2.15,-11.782 -7.5,-22.5 -13.94,-32.141 -6.43,-9.641 -16.06,-18.211 -27.85,-24.6407 -11.79,-6.4297 -27.86,-10.7187 -46.08,-10.7187 h -305.83 c -19.28,0 -34.28,3.2187 -46.07,10.7187 -11.79,6.4297 -21.43,14.9997 -27.85,24.6407 -6.44,9.641 -11.79,20.359 -13.94,32.141 -2.14,11.789 -3.21,22.5 -3.21,32.148 v 140.352 c 0,10.718 -4.29,20.359 -11.79,27.859 -7.5,7.5 -17.14,11.789 -27.85,11.789 -10.71,0 -20.36,-4.289 -27.86,-11.789 -7.5,-7.5 -11.79,-17.141 -11.79,-27.859 V 180 c 0,-20.359 3.23,-41.789 10.73,-63.219 6.42,-21.4294 17.13,-40.7107 30,-57.8591 12.85,-17.1406 28.92,-31.0703 48.21,-42.8516 C 3614.91,5.35156 3636.34,0 3659.91,0 h 351.97 c 22.5,1.07031 42.87,7.5 60,18.2109 17.14,10.711 32.14,25.711 45,42.8594 12.87,17.1406 21.43,36.4297 27.87,56.7817 6.42,20.359 9.63,41.789 9.63,62.148 v 140.352 c 0,10.718 -4.28,20.359 -11.78,27.859 -7.5,7.5 -17.14,11.789 -27.85,11.789 -10.73,0 -20.37,-4.289 -27.87,-11.789 -7.5,-7.5 -11.78,-17.141 -11.78,-27.859 V 180 Z" /></clipPath><linearGradient
       id="linearGradient3764"
       spreadMethod="pad"
       gradientTransform="matrix(646.617,0,0,-646.617,3507.77,180)"
       gradientUnits="userSpaceOnUse"
       y2="0"
       x2="1"
       y1="0"
       x1="0"><stop
         id="stop3760"
         offset="0"
         style="stop-opacity:1;stop-color:#3678c6" /><stop
         id="stop3762"
         offset="1"
         style="stop-opacity:1;stop-color:#59caf5" /></linearGradient><clipPath
       id="clipPath3778"
       clipPathUnits="userSpaceOnUse"><path
         id="path3776"
         d="M 966.969,39.8984 C 966.969,17.8594 984.84,0 1006.87,0 c 22.05,0 39.91,17.8594 39.91,39.8984 l -0.52,240.7616 h 250.95 c 21.9,0 39.66,17.762 39.66,39.66 0,21.899 -17.76,39.66 -39.66,39.66 H 725.02 c -21.907,0 -39.665,-17.761 -39.665,-39.66 0,-21.898 17.758,-39.66 39.665,-39.66 h 241.851 z" /></clipPath><linearGradient
       id="linearGradient3794"
       spreadMethod="pad"
       gradientTransform="matrix(651.51,0,0,-651.51,685.357,179.99)"
       gradientUnits="userSpaceOnUse"
       y2="0"
       x2="1"
       y1="0"
       x1="0"><stop
         id="stop3780"
         offset="0"
         style="stop-opacity:1;stop-color:#455191" /><stop
         id="stop3782"
         offset="0.11879413"
         style="stop-opacity:1;stop-color:#455191" /><stop
         id="stop3784"
         offset="0.414177"
         style="stop-opacity:1;stop-color:#455191" /><stop
         id="stop3786"
         offset="0.47601718"
         style="stop-opacity:1;stop-color:#455191" /><stop
         id="stop3788"
         offset="0.79928"
         style="stop-opacity:1;stop-color:#3779c6" /><stop
         id="stop3790"
         offset="0.80308634"
         style="stop-opacity:1;stop-color:#3779c6" /><stop
         id="stop3792"
         offset="1"
         style="stop-opacity:1;stop-color:#3779c6" /></linearGradient><clipPath
       id="clipPath3806"
       clipPathUnits="userSpaceOnUse"><path
         id="path3804"
         d="m 2094.53,682.766 c -2.58,44.504 31.42,82.675 75.89,85.254 44.54,2.566 82.72,-31.434 85.27,-75.942 2.58,-44.515 -31.42,-82.676 -75.92,-85.234 -44.54,-2.563 -82.7,31.402 -85.24,75.922 z" /></clipPath><linearGradient
       id="linearGradient3814"
       spreadMethod="pad"
       gradientTransform="matrix(161.436,0,0,-161.436,2094.39,687.431)"
       gradientUnits="userSpaceOnUse"
       y2="0"
       x2="1"
       y1="0"
       x1="0"><stop
         id="stop3808"
         offset="0"
         style="stop-opacity:1;stop-color:#550709" /><stop
         id="stop3810"
         offset="0.51297309"
         style="stop-opacity:1;stop-color:#771519" /><stop
         id="stop3812"
         offset="1"
         style="stop-opacity:1;stop-color:#771519" /></linearGradient><clipPath
       id="clipPath3824"
       clipPathUnits="userSpaceOnUse"><path
         id="path3822"
         d="m 2243.74,946.949 c -2.07,35.598 25.13,66.151 60.74,68.211 35.61,2.06 66.16,-25.137 68.22,-60.75 2.03,-35.601 -25.17,-66.14 -60.78,-68.199 -35.61,-2.047 -66.12,25.148 -68.18,60.738 z" /></clipPath><linearGradient
       id="linearGradient3832"
       spreadMethod="pad"
       gradientTransform="matrix(129.184,0,0,-129.184,2243.62,950.685)"
       gradientUnits="userSpaceOnUse"
       y2="0"
       x2="1"
       y1="0"
       x1="0"><stop
         id="stop3826"
         offset="0"
         style="stop-opacity:1;stop-color:#550709" /><stop
         id="stop3828"
         offset="0.51297309"
         style="stop-opacity:1;stop-color:#771519" /><stop
         id="stop3830"
         offset="1"
         style="stop-opacity:1;stop-color:#771519" /></linearGradient><clipPath
       id="clipPath3842"
       clipPathUnits="userSpaceOnUse"><path
         id="path3840"
         d="m 2419.96,1175.42 c -1.64,28.49 20.11,52.91 48.56,54.55 28.49,1.65 52.95,-20.1 54.59,-48.59 1.65,-28.49 -20.11,-52.92 -48.63,-54.56 -28.45,-1.64 -52.91,20.11 -54.52,48.6 z" /></clipPath><linearGradient
       id="linearGradient3850"
       spreadMethod="pad"
       gradientTransform="matrix(103.33,0,0,-103.33,2419.87,1178.4)"
       gradientUnits="userSpaceOnUse"
       y2="0"
       x2="1"
       y1="0"
       x1="0"><stop
         id="stop3844"
         offset="0"
         style="stop-opacity:1;stop-color:#550709" /><stop
         id="stop3846"
         offset="0.51297309"
         style="stop-opacity:1;stop-color:#771519" /><stop
         id="stop3848"
         offset="1"
         style="stop-opacity:1;stop-color:#771519" /></linearGradient><clipPath
       id="clipPath3860"
       clipPathUnits="userSpaceOnUse"><path
         id="path3858"
         d="m 1801.56,1040.88 c 11.74,39.12 52.98,61.32 92.14,49.59 39.12,-11.73 61.32,-52.95 49.56,-92.083 -11.73,-39.106 -52.98,-61.344 -92.07,-49.594 -39.12,11.742 -61.36,52.957 -49.63,92.087 z" /></clipPath><linearGradient
       id="linearGradient3868"
       spreadMethod="pad"
       gradientTransform="matrix(147.98,0,0,-147.98,1798.43,1019.63)"
       gradientUnits="userSpaceOnUse"
       y2="0"
       x2="1"
       y1="0"
       x1="0"><stop
         id="stop3862"
         offset="0"
         style="stop-opacity:1;stop-color:#771519" /><stop
         id="stop3864"
         offset="0.51721552"
         style="stop-opacity:1;stop-color:#c91e25" /><stop
         id="stop3866"
         offset="1"
         style="stop-opacity:1;stop-color:#c91e25" /></linearGradient><clipPath
       id="clipPath3878"
       clipPathUnits="userSpaceOnUse"><path
         id="path3876"
         d="m 2015.9,1239.19 c 9.63,32.22 43.63,50.5 75.82,40.87 32.23,-9.67 50.5,-43.63 40.87,-75.86 -9.67,-32.23 -43.67,-50.49 -75.86,-40.83 -32.19,9.65 -50.5,43.61 -40.83,75.82 z" /></clipPath><linearGradient
       id="linearGradient3886"
       spreadMethod="pad"
       gradientTransform="matrix(121.846,0,0,-121.846,2013.31,1221.71)"
       gradientUnits="userSpaceOnUse"
       y2="0"
       x2="1"
       y1="0"
       x1="0"><stop
         id="stop3880"
         offset="0"
         style="stop-opacity:1;stop-color:#771519" /><stop
         id="stop3882"
         offset="0.51721552"
         style="stop-opacity:1;stop-color:#c91e25" /><stop
         id="stop3884"
         offset="1"
         style="stop-opacity:1;stop-color:#c91e25" /></linearGradient><clipPath
       id="clipPath3896"
       clipPathUnits="userSpaceOnUse"><path
         id="path3894"
         d="m 2228.63,1394.4 c 7.51,25.04 33.87,39.26 58.94,31.74 25.01,-7.5 39.25,-33.86 31.74,-58.92 -7.54,-25.04 -33.9,-39.23 -58.94,-31.74 -25.04,7.53 -39.25,33.92 -31.74,58.92 z" /></clipPath><linearGradient
       id="linearGradient3904"
       spreadMethod="pad"
       gradientTransform="matrix(94.6946,0,0,-94.6946,2226.62,1380.82)"
       gradientUnits="userSpaceOnUse"
       y2="0"
       x2="1"
       y1="0"
       x1="0"><stop
         id="stop3898"
         offset="0"
         style="stop-opacity:1;stop-color:#771519" /><stop
         id="stop3900"
         offset="0.51721552"
         style="stop-opacity:1;stop-color:#c91e25" /><stop
         id="stop3902"
         offset="1"
         style="stop-opacity:1;stop-color:#c91e25" /></linearGradient><clipPath
       id="clipPath3914"
       clipPathUnits="userSpaceOnUse"><path
         id="path3912"
         d="m 3130.65,1040.88 c -11.72,39.12 -52.97,61.32 -92.1,49.59 -39.12,-11.73 -61.32,-52.95 -49.57,-92.083 11.7,-39.106 52.95,-61.344 92.07,-49.594 39.13,11.742 61.33,52.957 49.6,92.087 z" /></clipPath><linearGradient
       id="linearGradient3922"
       spreadMethod="pad"
       gradientTransform="matrix(147.949,0,0,-147.949,2985.84,1019.63)"
       gradientUnits="userSpaceOnUse"
       y2="0"
       x2="1"
       y1="0"
       x1="0"><stop
         id="stop3916"
         offset="0"
         style="stop-opacity:1;stop-color:#771519" /><stop
         id="stop3918"
         offset="0.51721552"
         style="stop-opacity:1;stop-color:#c91e25" /><stop
         id="stop3920"
         offset="1"
         style="stop-opacity:1;stop-color:#c91e25" /></linearGradient><clipPath
       id="clipPath3932"
       clipPathUnits="userSpaceOnUse"><path
         id="path3930"
         d="m 2926.95,1239.19 c -9.67,32.22 -43.63,50.5 -75.82,40.87 -32.23,-9.67 -50.53,-43.63 -40.87,-75.86 9.67,-32.23 43.64,-50.49 75.86,-40.83 32.2,9.65 50.5,43.61 40.83,75.82 z" /></clipPath><linearGradient
       id="linearGradient3940"
       spreadMethod="pad"
       gradientTransform="matrix(121.857,0,0,-121.857,2807.68,1221.71)"
       gradientUnits="userSpaceOnUse"
       y2="0"
       x2="1"
       y1="0"
       x1="0"><stop
         id="stop3934"
         offset="0"
         style="stop-opacity:1;stop-color:#771519" /><stop
         id="stop3936"
         offset="0.51721552"
         style="stop-opacity:1;stop-color:#c91e25" /><stop
         id="stop3938"
         offset="1"
         style="stop-opacity:1;stop-color:#c91e25" /></linearGradient><clipPath
       id="clipPath3950"
       clipPathUnits="userSpaceOnUse"><path
         id="path3948"
         d="m 2707.22,1394.4 c -7.51,25.04 -33.88,39.26 -58.95,31.74 -25,-7.5 -39.22,-33.86 -31.71,-58.92 7.51,-25.04 33.9,-39.23 58.91,-31.74 25.04,7.53 39.25,33.92 31.75,58.92 z" /></clipPath><linearGradient
       id="linearGradient3958"
       spreadMethod="pad"
       gradientTransform="matrix(94.6651,0,0,-94.6651,2614.56,1380.82)"
       gradientUnits="userSpaceOnUse"
       y2="0"
       x2="1"
       y1="0"
       x1="0"><stop
         id="stop3952"
         offset="0"
         style="stop-opacity:1;stop-color:#550709" /><stop
         id="stop3954"
         offset="0.51297309"
         style="stop-opacity:1;stop-color:#771519" /><stop
         id="stop3956"
         offset="1"
         style="stop-opacity:1;stop-color:#771519" /></linearGradient><clipPath
       id="clipPath3968"
       clipPathUnits="userSpaceOnUse"><path
         id="path3966"
         d="m 2509.2,1523.85 c -6.26,20.78 -28.17,32.59 -48.99,26.35 -20.75,-6.22 -32.58,-28.15 -26.32,-48.95 6.25,-20.78 28.13,-32.58 48.91,-26.36 20.82,6.25 32.61,28.17 26.4,48.96 z" /></clipPath><linearGradient
       id="linearGradient3976"
       spreadMethod="pad"
       gradientTransform="matrix(78.6439,0,0,-78.6439,2432.21,1512.55)"
       gradientUnits="userSpaceOnUse"
       y2="0"
       x2="1"
       y1="0"
       x1="0"><stop
         id="stop3970"
         offset="0"
         style="stop-opacity:1;stop-color:#771519" /><stop
         id="stop3972"
         offset="0.51721552"
         style="stop-opacity:1;stop-color:#c91e25" /><stop
         id="stop3974"
         offset="1"
         style="stop-opacity:1;stop-color:#c91e25" /></linearGradient><clipPath
       id="clipPath3986"
       clipPathUnits="userSpaceOnUse"><path
         id="path3984"
         d="m 2847.97,682.766 c 2.54,44.519 -31.42,82.691 -75.93,85.254 -44.5,2.574 -82.69,-31.418 -85.27,-75.942 -2.54,-44.504 31.46,-82.66 75.96,-85.238 44.5,-2.559 82.66,31.422 85.24,75.926 z" /></clipPath><linearGradient
       id="linearGradient3994"
       spreadMethod="pad"
       gradientTransform="matrix(161.461,0,0,-161.461,2686.64,687.431)"
       gradientUnits="userSpaceOnUse"
       y2="0"
       x2="1"
       y1="0"
       x1="0"><stop
         id="stop3988"
         offset="0"
         style="stop-opacity:1;stop-color:#771519" /><stop
         id="stop3990"
         offset="0.51721552"
         style="stop-opacity:1;stop-color:#c91e25" /><stop
         id="stop3992"
         offset="1"
         style="stop-opacity:1;stop-color:#c91e25" /></linearGradient><clipPath
       id="clipPath4004"
       clipPathUnits="userSpaceOnUse"><path
         id="path4002"
         d="m 2698.73,946.973 c 2.06,35.609 -25.14,66.137 -60.71,68.187 -35.61,2.06 -66.16,-25.137 -68.23,-60.734 -2.06,-35.606 25.17,-66.156 60.75,-68.203 35.61,-2.059 66.13,25.136 68.19,60.75 z" /></clipPath><linearGradient
       id="linearGradient4012"
       spreadMethod="pad"
       gradientTransform="matrix(129.156,0,0,-129.156,2569.68,950.692)"
       gradientUnits="userSpaceOnUse"
       y2="0"
       x2="1"
       y1="0"
       x1="0"><stop
         id="stop4006"
         offset="0"
         style="stop-opacity:1;stop-color:#771519" /><stop
         id="stop4008"
         offset="0.51721552"
         style="stop-opacity:1;stop-color:#c91e25" /><stop
         id="stop4010"
         offset="1"
         style="stop-opacity:1;stop-color:#c91e25" /></linearGradient></defs><g
     transform="matrix(1.3333333,0,0,-1.3333333,-249.82933,220.08291)"
     id="g3740"><g
       transform="scale(0.1)"
       id="g3742"><g
         transform="translate(123.29211,-156.08255)"
         id="g3800"><g
           clip-path="url(#clipPath3806)"
           id="g3802"><path
             id="path3816"
             style="fill:url(#linearGradient3814);fill-opacity:1;fill-rule:nonzero;stroke:none"
             d="m 2094.53,682.766 c -2.58,44.504 31.42,82.675 75.89,85.254 44.54,2.566 82.72,-31.434 85.27,-75.942 2.58,-44.515 -31.42,-82.676 -75.92,-85.234 -44.54,-2.563 -82.7,31.402 -85.24,75.922" /></g></g><g
         transform="translate(123.29211,-156.08255)"
         id="g3818"><g
           clip-path="url(#clipPath3824)"
           id="g3820"><path
             id="path3834"
             style="fill:url(#linearGradient3832);fill-opacity:1;fill-rule:nonzero;stroke:none"
             d="m 2243.74,946.949 c -2.07,35.598 25.13,66.151 60.74,68.211 35.61,2.06 66.16,-25.137 68.22,-60.75 2.03,-35.601 -25.17,-66.14 -60.78,-68.199 -35.61,-2.047 -66.12,25.148 -68.18,60.738" /></g></g><g
         transform="translate(123.29211,-156.08255)"
         id="g3836"><g
           clip-path="url(#clipPath3842)"
           id="g3838"><path
             id="path3852"
             style="fill:url(#linearGradient3850);fill-opacity:1;fill-rule:nonzero;stroke:none"
             d="m 2419.96,1175.42 c -1.64,28.49 20.11,52.91 48.56,54.55 28.49,1.65 52.95,-20.1 54.59,-48.59 1.65,-28.49 -20.11,-52.92 -48.63,-54.56 -28.45,-1.64 -52.91,20.11 -54.52,48.6" /></g></g><g
         transform="translate(123.29211,-156.08255)"
         id="g3854"><g
           clip-path="url(#clipPath3860)"
           id="g3856"><path
             id="path3870"
             style="fill:url(#linearGradient3868);fill-opacity:1;fill-rule:nonzero;stroke:none"
             d="m 1801.56,1040.88 c 11.74,39.12 52.98,61.32 92.14,49.59 39.12,-11.73 61.32,-52.95 49.56,-92.083 -11.73,-39.106 -52.98,-61.344 -92.07,-49.594 -39.12,11.742 -61.36,52.957 -49.63,92.087" /></g></g><g
         transform="translate(123.29211,-156.08255)"
         id="g3872"><g
           clip-path="url(#clipPath3878)"
           id="g3874"><path
             id="path3888"
             style="fill:url(#linearGradient3886);fill-opacity:1;fill-rule:nonzero;stroke:none"
             d="m 2015.9,1239.19 c 9.63,32.22 43.63,50.5 75.82,40.87 32.23,-9.67 50.5,-43.63 40.87,-75.86 -9.67,-32.23 -43.67,-50.49 -75.86,-40.83 -32.19,9.65 -50.5,43.61 -40.83,75.82" /></g></g><g
         transform="translate(123.29211,-156.08255)"
         id="g3890"><g
           clip-path="url(#clipPath3896)"
           id="g3892"><path
             id="path3906"
             style="fill:url(#linearGradient3904);fill-opacity:1;fill-rule:nonzero;stroke:none"
             d="m 2228.63,1394.4 c 7.51,25.04 33.87,39.26 58.94,31.74 25.01,-7.5 39.25,-33.86 31.74,-58.92 -7.54,-25.04 -33.9,-39.23 -58.94,-31.74 -25.04,7.53 -39.25,33.92 -31.74,58.92" /></g></g><g
         transform="translate(123.29211,-156.08255)"
         id="g3908"><g
           clip-path="url(#clipPath3914)"
           id="g3910"><path
             id="path3924"
             style="fill:url(#linearGradient3922);fill-opacity:1;fill-rule:nonzero;stroke:none"
             d="m 3130.65,1040.88 c -11.72,39.12 -52.97,61.32 -92.1,49.59 -39.12,-11.73 -61.32,-52.95 -49.57,-92.083 11.7,-39.106 52.95,-61.344 92.07,-49.594 39.13,11.742 61.33,52.957 49.6,92.087" /></g></g><g
         transform="translate(123.29211,-156.08255)"
         id="g3926"><g
           clip-path="url(#clipPath3932)"
           id="g3928"><path
             id="path3942"
             style="fill:url(#linearGradient3940);fill-opacity:1;fill-rule:nonzero;stroke:none"
             d="m 2926.95,1239.19 c -9.67,32.22 -43.63,50.5 -75.82,40.87 -32.23,-9.67 -50.53,-43.63 -40.87,-75.86 9.67,-32.23 43.64,-50.49 75.86,-40.83 32.2,9.65 50.5,43.61 40.83,75.82" /></g></g><g
         transform="translate(123.29211,-156.08255)"
         id="g3944"><g
           clip-path="url(#clipPath3950)"
           id="g3946"><path
             id="path3960"
             style="fill:url(#linearGradient3958);fill-opacity:1;fill-rule:nonzero;stroke:none"
             d="m 2707.22,1394.4 c -7.51,25.04 -33.88,39.26 -58.95,31.74 -25,-7.5 -39.22,-33.86 -31.71,-58.92 7.51,-25.04 33.9,-39.23 58.91,-31.74 25.04,7.53 39.25,33.92 31.75,58.92" /></g></g><g
         transform="translate(123.29211,-156.08255)"
         id="g3962"><g
           clip-path="url(#clipPath3968)"
           id="g3964"><path
             id="path3978"
             style="fill:url(#linearGradient3976);fill-opacity:1;fill-rule:nonzero;stroke:none"
             d="m 2509.2,1523.85 c -6.26,20.78 -28.17,32.59 -48.99,26.35 -20.75,-6.22 -32.58,-28.15 -26.32,-48.95 6.25,-20.78 28.13,-32.58 48.91,-26.36 20.82,6.25 32.61,28.17 26.4,48.96" /></g></g><g
         transform="translate(123.29211,-156.08255)"
         id="g3980"><g
           clip-path="url(#clipPath3986)"
           id="g3982"><path
             id="path3996"
             style="fill:url(#linearGradient3994);fill-opacity:1;fill-rule:nonzero;stroke:none"
             d="m 2847.97,682.766 c 2.54,44.519 -31.42,82.691 -75.93,85.254 -44.5,2.574 -82.69,-31.418 -85.27,-75.942 -2.54,-44.504 31.46,-82.66 75.96,-85.238 44.5,-2.559 82.66,31.422 85.24,75.926" /></g></g><g
         transform="translate(123.29211,-156.08255)"
         id="g3998"><g
           clip-path="url(#clipPath4004)"
           id="g4000"><path
             id="path4014"
             style="fill:url(#linearGradient4012);fill-opacity:1;fill-rule:nonzero;stroke:none"
             d="m 2698.73,946.973 c 2.06,35.609 -25.14,66.137 -60.71,68.187 -35.61,2.06 -66.16,-25.137 -68.23,-60.734 -2.06,-35.606 25.17,-66.156 60.75,-68.203 35.61,-2.059 66.13,25.136 68.19,60.75" /></g></g></g></g></svg>