<?xml version="1.0" encoding="UTF-8" standalone="no"?>
<svg
   xmlns:dc="http://purl.org/dc/elements/1.1/"
   xmlns:cc="http://creativecommons.org/ns#"
   xmlns:rdf="http://www.w3.org/1999/02/22-rdf-syntax-ns#"
   xmlns:svg="http://www.w3.org/2000/svg"
   xmlns="http://www.w3.org/2000/svg"
   viewBox="0 0 116.39999 116.4"
   height="120"
   width="120"
   xml:space="preserve"
   id="svg159"
   version="1.1"><metadata
     id="metadata165"><rdf:RDF><cc:Work
         rdf:about=""><dc:format>image/svg+xml</dc:format><dc:type
           rdf:resource="http://purl.org/dc/dcmitype/StillImage" /><dc:title></dc:title></cc:Work></rdf:RDF></metadata><defs
     id="defs163"><clipPath
       id="clipPath333"
       clipPathUnits="userSpaceOnUse"><path
         id="path331"
         d="m 1164.81,293.301 c 11.72,6.699 20.92,14.797 27.59,24.398 6.67,9.602 11.2,20.102 13.6,31.602 2.4,11.5 3.61,22 3.61,31.597 0,9.602 -1.21,20.102 -3.61,31.602 -2.4,11.5 -6.93,22 -13.6,31.602 -6.67,9.597 -15.87,17.699 -27.59,24.398 -11.74,6.598 -26.68,10 -44.8,10 H 796.805 c -18.672,0 -33.739,-3.402 -45.203,-10 -11.473,-6.699 -20.536,-14.801 -27.196,-24.398 C 717.73,434.5 713.203,424 710.801,412.5 c -2.395,-11.5 -3.598,-22 -3.598,-31.602 0,-9.597 1.203,-20.097 3.598,-31.597 2.402,-11.5 6.929,-22 13.605,-31.602 6.66,-9.601 15.723,-17.699 27.196,-24.398 11.464,-6.699 26.531,-10 45.203,-10 h 323.205 c 18.12,0 33.06,3.301 44.8,10 z m 119.2,87.597 c 0,-20.3 -3.34,-40.699 -10,-61.199 -6.68,-20.5 -16.4,-39.199 -29.2,-56 -12.81,-16.797 -28.28,-30.5 -46.41,-41.199 -18.13,-10.699 -38.67,-16 -61.6,-16 H 772.004 c -21.875,1 -41.34,7.102 -58.399,18 -17.074,10.898 -31.601,24.699 -43.597,41.199 -12.004,16.5 -21.203,34.899 -27.606,55.199 -6.398,20.301 -9.597,40.301 -9.597,60 0,20.301 3.324,40.704 10,61.204 6.66,20.496 16.402,39.199 29.199,55.996 12.801,16.804 28.262,30.504 46.402,41.203 18.125,10.699 38.66,16 61.602,16 h 364.802 c 21.86,-1.102 41.32,-7.102 58.39,-18 17.07,-11 31.61,-24.703 43.61,-41.199 11.99,-16.5 21.19,-34.903 27.6,-55.204 6.39,-20.3 9.6,-40.3 9.6,-60 z" /></clipPath><linearGradient
       id="linearGradient341"
       spreadMethod="pad"
       gradientTransform="matrix(651.201,0,0,-651.201,632.803,380.898)"
       gradientUnits="userSpaceOnUse"
       y2="0"
       x2="1"
       y1="0"
       x1="0"><stop
         id="stop335"
         offset="0"
         style="stop-opacity:1;stop-color:#1c407d" /><stop
         id="stop337"
         offset="0.55771204"
         style="stop-opacity:1;stop-color:#047bc1" /><stop
         id="stop339"
         offset="1"
         style="stop-opacity:1;stop-color:#047bc1" /></linearGradient><clipPath
       id="clipPath353"
       clipPathUnits="userSpaceOnUse"><path
         id="path351"
         d="m 2393.58,544.102 c 7.47,-7.5 11.2,-16.602 11.2,-27.2 0,-10.703 -3.73,-19.8 -11.2,-27.203 -7.47,-7.5 -16.54,-11.199 -27.2,-11.199 h -236.8 V 244.902 c 0,-10.703 -3.74,-19.804 -11.2,-27.203 -7.48,-7.5 -16.54,-11.199 -27.2,-11.199 -10.67,0 -19.73,3.699 -27.2,11.199 -7.47,7.399 -11.21,16.5 -11.21,27.203 V 478.5 h -240 c -9.59,1.102 -17.87,5.199 -24.79,12.398 -6.93,7.2 -10.4,15.801 -10.4,26.004 0,10.598 3.72,19.7 11.2,27.2 7.46,7.5 16.52,11.199 27.2,11.199 h 550.4 c 10.66,0 19.73,-3.699 27.2,-11.199 z" /></clipPath><linearGradient
       id="linearGradient363"
       spreadMethod="pad"
       gradientTransform="matrix(627.197,0,0,-627.197,1777.58,380.898)"
       gradientUnits="userSpaceOnUse"
       y2="0"
       x2="1"
       y1="0"
       x1="0"><stop
         id="stop355"
         offset="0"
         style="stop-opacity:1;stop-color:#047bc1" /><stop
         id="stop357"
         offset="0.0996414"
         style="stop-opacity:1;stop-color:#047bc1" /><stop
         id="stop359"
         offset="0.50264328"
         style="stop-opacity:1;stop-color:#047bc1" /><stop
         id="stop361"
         offset="1"
         style="stop-opacity:1;stop-color:#047bc1" /></linearGradient><clipPath
       id="clipPath373"
       clipPathUnits="userSpaceOnUse"><path
         id="path371"
         d="m 3099.96,217.699 c -7.47,-7.5 -16.53,-11.199 -27.19,-11.199 -10.68,0 -19.74,3.699 -27.2,11.199 -7.48,7.399 -11.2,16.5 -11.2,27.203 V 342.5 h -472.81 v -97.598 c 0,-10.703 -3.73,-19.804 -11.2,-27.203 -7.47,-7.5 -16.53,-11.199 -27.19,-11.199 -10.68,0 -19.74,3.699 -27.2,11.199 -7.48,7.399 -11.2,16.5 -11.2,27.203 v 272 c 0,10.598 3.72,19.7 11.2,27.2 7.46,7.5 16.52,11.199 27.2,11.199 10.66,0 19.72,-3.699 27.19,-11.199 7.47,-7.5 11.2,-16.602 11.2,-27.2 v -97.601 h 472.81 v 97.601 c 0,10.598 3.72,19.7 11.2,27.2 7.46,7.5 16.52,11.199 27.2,11.199 10.66,0 19.72,-3.699 27.19,-11.199 7.47,-7.5 11.2,-16.602 11.2,-27.2 v -272 c 0,-10.703 -3.73,-19.804 -11.2,-27.203 z" /></clipPath><linearGradient
       id="linearGradient381"
       spreadMethod="pad"
       gradientTransform="matrix(626.396,0,0,-626.396,2484.77,380.898)"
       gradientUnits="userSpaceOnUse"
       y2="0"
       x2="1"
       y1="0"
       x1="0"><stop
         id="stop375"
         offset="0"
         style="stop-opacity:1;stop-color:#0078ba" /><stop
         id="stop377"
         offset="0.81167514"
         style="stop-opacity:1;stop-color:#4fb2e0" /><stop
         id="stop379"
         offset="1"
         style="stop-opacity:1;stop-color:#4fb2e0" /></linearGradient><clipPath
       id="clipPath393"
       clipPathUnits="userSpaceOnUse"><path
         id="path391"
         d="m 2230.39,1244.1 c 22.15,-15 52.32,-9.3 67.38,12.9 15.06,22.1 9.31,52.3 -12.85,67.4 -22.14,15 -52.31,9.3 -67.38,-12.9 -15.04,-22.1 -9.29,-52.3 12.85,-67.4 z" /></clipPath><linearGradient
       id="linearGradient401"
       spreadMethod="pad"
       gradientTransform="matrix(72.8604,64.07,64.07,-72.8604,2221.23,1252.2)"
       gradientUnits="userSpaceOnUse"
       y2="0"
       x2="1"
       y1="0"
       x1="0"><stop
         id="stop395"
         offset="0"
         style="stop-opacity:1;stop-color:#7a1315" /><stop
         id="stop397"
         offset="0.72820483"
         style="stop-opacity:1;stop-color:#c72127" /><stop
         id="stop399"
         offset="1"
         style="stop-opacity:1;stop-color:#c72127" /></linearGradient><clipPath
       id="clipPath411"
       clipPathUnits="userSpaceOnUse"><path
         id="path409"
         d="m 2125.13,1090 c 27.4,-18.7 64.74,-11.6 83.37,15.9 18.65,27.4 11.53,64.7 -15.87,83.3 -27.41,18.7 -64.75,11.6 -83.39,-15.9 -18.63,-27.4 -11.51,-64.7 15.89,-83.3 z" /></clipPath><linearGradient
       id="linearGradient419"
       spreadMethod="pad"
       gradientTransform="matrix(90.1654,79.2873,79.2873,-90.1654,2113.8,1100)"
       gradientUnits="userSpaceOnUse"
       y2="0"
       x2="1"
       y1="0"
       x1="0"><stop
         id="stop413"
         offset="0"
         style="stop-opacity:1;stop-color:#7a1315" /><stop
         id="stop415"
         offset="0.72820483"
         style="stop-opacity:1;stop-color:#c72127" /><stop
         id="stop417"
         offset="1"
         style="stop-opacity:1;stop-color:#c72127" /></linearGradient><clipPath
       id="clipPath429"
       clipPathUnits="userSpaceOnUse"><path
         id="path427"
         d="m 2084.2,1027.8 c 28.99,-19.7 36.5,-59.198 16.81,-88.198 -19.72,-28.903 -59.19,-36.504 -88.18,-16.704 -28.98,19.7 -36.5,59.102 -16.79,88.102 19.7,29 59.18,36.5 88.16,16.8 z" /></clipPath><linearGradient
       id="linearGradient437"
       spreadMethod="pad"
       gradientTransform="matrix(95.33,83.8287,83.8287,-95.33,2000.85,933.398)"
       gradientUnits="userSpaceOnUse"
       y2="0"
       x2="1"
       y1="0"
       x1="0"><stop
         id="stop431"
         offset="0"
         style="stop-opacity:1;stop-color:#7a1315" /><stop
         id="stop433"
         offset="0.72820483"
         style="stop-opacity:1;stop-color:#c72127" /><stop
         id="stop435"
         offset="1"
         style="stop-opacity:1;stop-color:#c72127" /></linearGradient><clipPath
       id="clipPath447"
       clipPathUnits="userSpaceOnUse"><path
         id="path445"
         d="m 1887.66,1364.6 c 26.78,0.4 48.2,22.4 47.83,49.2 -0.37,26.8 -22.37,48.2 -49.17,47.8 -26.76,-0.3 -48.18,-22.4 -47.83,-49.1 0.39,-26.8 22.4,-48.2 49.17,-47.9 z" /></clipPath><linearGradient
       id="linearGradient455"
       spreadMethod="pad"
       gradientTransform="matrix(22.9347,94.2741,94.2741,-22.9347,1875.53,1366)"
       gradientUnits="userSpaceOnUse"
       y2="0"
       x2="1"
       y1="0"
       x1="0"><stop
         id="stop449"
         offset="0"
         style="stop-opacity:1;stop-color:#7a1315" /><stop
         id="stop451"
         offset="0.72820483"
         style="stop-opacity:1;stop-color:#c72127" /><stop
         id="stop453"
         offset="1"
         style="stop-opacity:1;stop-color:#c72127" /></linearGradient><clipPath
       id="clipPath465"
       clipPathUnits="userSpaceOnUse"><path
         id="path463"
         d="m 1889.81,1159.7 c 33.13,0.5 59.64,27.7 59.17,60.9 -0.44,33.1 -27.68,59.6 -60.82,59.2 -33.14,-0.5 -59.64,-27.7 -59.18,-60.9 0.44,-33.1 27.7,-59.6 60.83,-59.2 z" /></clipPath><linearGradient
       id="linearGradient473"
       spreadMethod="pad"
       gradientTransform="matrix(28.3819,116.665,116.665,-28.3819,1874.79,1161.4)"
       gradientUnits="userSpaceOnUse"
       y2="0"
       x2="1"
       y1="0"
       x1="0"><stop
         id="stop467"
         offset="0"
         style="stop-opacity:1;stop-color:#7a1315" /><stop
         id="stop469"
         offset="0.72820483"
         style="stop-opacity:1;stop-color:#c72127" /><stop
         id="stop471"
         offset="1"
         style="stop-opacity:1;stop-color:#c72127" /></linearGradient><clipPath
       id="clipPath483"
       clipPathUnits="userSpaceOnUse"><path
         id="path481"
         d="m 1890.43,1098.3 c 35.05,0.5 63.85,-27.5 64.35,-62.6 0.46,-35 -27.56,-63.798 -62.62,-64.302 -35.03,-0.5 -63.82,27.5 -64.31,62.602 -0.48,35 27.55,63.8 62.58,64.3 z" /></clipPath><linearGradient
       id="linearGradient491"
       spreadMethod="pad"
       gradientTransform="matrix(30.0076,123.347,123.347,-30.0076,1876.31,973.198)"
       gradientUnits="userSpaceOnUse"
       y2="0"
       x2="1"
       y1="0"
       x1="0"><stop
         id="stop485"
         offset="0"
         style="stop-opacity:1;stop-color:#7a1315" /><stop
         id="stop487"
         offset="0.72820483"
         style="stop-opacity:1;stop-color:#c72127" /><stop
         id="stop489"
         offset="1"
         style="stop-opacity:1;stop-color:#c72127" /></linearGradient><clipPath
       id="clipPath501"
       clipPathUnits="userSpaceOnUse"><path
         id="path499"
         d="m 1887.12,905.801 c 46.58,0.597 84.85,-36.602 85.51,-83.203 0.61,-46.598 -36.62,-84.797 -83.2,-85.496 -46.56,-0.602 -84.83,36.597 -85.48,83.199 -0.63,46.601 36.61,84.797 83.17,85.5 z" /></clipPath><linearGradient
       id="linearGradient509"
       spreadMethod="pad"
       gradientTransform="matrix(39.878,163.92,163.92,-39.878,1868.35,739.5)"
       gradientUnits="userSpaceOnUse"
       y2="0"
       x2="1"
       y1="0"
       x1="0"><stop
         id="stop503"
         offset="0"
         style="stop-opacity:1;stop-color:#7a1315" /><stop
         id="stop505"
         offset="0.72820483"
         style="stop-opacity:1;stop-color:#c72127" /><stop
         id="stop507"
         offset="1"
         style="stop-opacity:1;stop-color:#c72127" /></linearGradient><clipPath
       id="clipPath519"
       clipPathUnits="userSpaceOnUse"><path
         id="path517"
         d="m 1534.66,1244.9 c 21.72,15.7 26.63,46 10.98,67.7 -15.67,21.7 -45.98,26.7 -67.71,11 -21.71,-15.7 -26.63,-46 -10.99,-67.7 15.68,-21.7 45.99,-26.6 67.72,-11 z" /></clipPath><linearGradient
       id="linearGradient527"
       spreadMethod="pad"
       gradientTransform="matrix(-35.2864,90.3797,90.3797,35.2864,1523.93,1239.1)"
       gradientUnits="userSpaceOnUse"
       y2="0"
       x2="1"
       y1="0"
       x1="0"><stop
         id="stop521"
         offset="0"
         style="stop-opacity:1;stop-color:#7a1315" /><stop
         id="stop523"
         offset="0.72820483"
         style="stop-opacity:1;stop-color:#c72127" /><stop
         id="stop525"
         offset="1"
         style="stop-opacity:1;stop-color:#c72127" /></linearGradient><clipPath
       id="clipPath537"
       clipPathUnits="userSpaceOnUse"><path
         id="path535"
         d="m 1646.89,1090.9 c 26.89,19.4 32.98,56.9 13.59,83.8 -19.38,26.9 -56.9,33 -83.78,13.6 -26.89,-19.4 -32.97,-56.9 -13.58,-83.8 19.37,-26.9 56.9,-33 83.77,-13.6 z" /></clipPath><linearGradient
       id="linearGradient545"
       spreadMethod="pad"
       gradientTransform="matrix(-43.6672,111.846,111.846,43.6672,1633.63,1083.7)"
       gradientUnits="userSpaceOnUse"
       y2="0"
       x2="1"
       y1="0"
       x1="0"><stop
         id="stop539"
         offset="0"
         style="stop-opacity:1;stop-color:#7a1315" /><stop
         id="stop541"
         offset="0.72820483"
         style="stop-opacity:1;stop-color:#c72127" /><stop
         id="stop543"
         offset="1"
         style="stop-opacity:1;stop-color:#c72127" /></linearGradient><clipPath
       id="clipPath555"
       clipPathUnits="userSpaceOnUse"><path
         id="path553"
         d="m 1695.89,1026.8 c 28.42,20.5 68.09,14.1 88.59,-14.3 20.49,-28.5 14.06,-68.199 -14.39,-88.699 -28.42,-20.403 -68.08,-14 -88.58,14.398 -20.49,28.5 -14.05,68.101 14.38,88.601 z" /></clipPath><linearGradient
       id="linearGradient563"
       spreadMethod="pad"
       gradientTransform="matrix(-46.1684,118.252,118.252,46.1684,1756.08,916.199)"
       gradientUnits="userSpaceOnUse"
       y2="0"
       x2="1"
       y1="0"
       x1="0"><stop
         id="stop557"
         offset="0"
         style="stop-opacity:1;stop-color:#7a1315" /><stop
         id="stop559"
         offset="0.72820483"
         style="stop-opacity:1;stop-color:#c72127" /><stop
         id="stop561"
         offset="1"
         style="stop-opacity:1;stop-color:#c72127" /></linearGradient></defs><g
     transform="matrix(1.3333333,0,0,-1.3333333,-192.43304,204.9793)"
     id="g167"><g
       transform="scale(0.1)"
       id="g387"><g
         id="g389"
         clip-path="url(#clipPath393)"><path
           d="m 2230.39,1244.1 c 22.15,-15 52.32,-9.3 67.38,12.9 15.06,22.1 9.31,52.3 -12.85,67.4 -22.14,15 -52.31,9.3 -67.38,-12.9 -15.04,-22.1 -9.29,-52.3 12.85,-67.4"
           style="fill:url(#linearGradient401);fill-opacity:1;fill-rule:nonzero;stroke:none"
           id="path403" /></g></g><g
       transform="scale(0.1)"
       id="g405"><g
         id="g407"
         clip-path="url(#clipPath411)"><path
           d="m 2125.13,1090 c 27.4,-18.7 64.74,-11.6 83.37,15.9 18.65,27.4 11.53,64.7 -15.87,83.3 -27.41,18.7 -64.75,11.6 -83.39,-15.9 -18.63,-27.4 -11.51,-64.7 15.89,-83.3"
           style="fill:url(#linearGradient419);fill-opacity:1;fill-rule:nonzero;stroke:none"
           id="path421" /></g></g><g
       transform="scale(0.1)"
       id="g423"><g
         id="g425"
         clip-path="url(#clipPath429)"><path
           d="m 2084.2,1027.8 c 28.99,-19.7 36.5,-59.198 16.81,-88.198 -19.72,-28.903 -59.19,-36.504 -88.18,-16.704 -28.98,19.7 -36.5,59.102 -16.79,88.102 19.7,29 59.18,36.5 88.16,16.8"
           style="fill:url(#linearGradient437);fill-opacity:1;fill-rule:nonzero;stroke:none"
           id="path439" /></g></g><g
       transform="scale(0.1)"
       id="g441"><g
         id="g443"
         clip-path="url(#clipPath447)"><path
           d="m 1887.66,1364.6 c 26.78,0.4 48.2,22.4 47.83,49.2 -0.37,26.8 -22.37,48.2 -49.17,47.8 -26.76,-0.3 -48.18,-22.4 -47.83,-49.1 0.39,-26.8 22.4,-48.2 49.17,-47.9"
           style="fill:url(#linearGradient455);fill-opacity:1;fill-rule:nonzero;stroke:none"
           id="path457" /></g></g><g
       transform="scale(0.1)"
       id="g459"><g
         id="g461"
         clip-path="url(#clipPath465)"><path
           d="m 1889.81,1159.7 c 33.13,0.5 59.64,27.7 59.17,60.9 -0.44,33.1 -27.68,59.6 -60.82,59.2 -33.14,-0.5 -59.64,-27.7 -59.18,-60.9 0.44,-33.1 27.7,-59.6 60.83,-59.2"
           style="fill:url(#linearGradient473);fill-opacity:1;fill-rule:nonzero;stroke:none"
           id="path475" /></g></g><g
       transform="scale(0.1)"
       id="g477"><g
         id="g479"
         clip-path="url(#clipPath483)"><path
           d="m 1890.43,1098.3 c 35.05,0.5 63.85,-27.5 64.35,-62.6 0.46,-35 -27.56,-63.798 -62.62,-64.302 -35.03,-0.5 -63.82,27.5 -64.31,62.602 -0.48,35 27.55,63.8 62.58,64.3"
           style="fill:url(#linearGradient491);fill-opacity:1;fill-rule:nonzero;stroke:none"
           id="path493" /></g></g><g
       transform="scale(0.1)"
       id="g495"><g
         id="g497"
         clip-path="url(#clipPath501)"><path
           d="m 1887.12,905.801 c 46.58,0.597 84.85,-36.602 85.51,-83.203 0.61,-46.598 -36.62,-84.797 -83.2,-85.496 -46.56,-0.602 -84.83,36.597 -85.48,83.199 -0.63,46.601 36.61,84.797 83.17,85.5"
           style="fill:url(#linearGradient509);fill-opacity:1;fill-rule:nonzero;stroke:none"
           id="path511" /></g></g><g
       transform="scale(0.1)"
       id="g513"><g
         id="g515"
         clip-path="url(#clipPath519)"><path
           d="m 1534.66,1244.9 c 21.72,15.7 26.63,46 10.98,67.7 -15.67,21.7 -45.98,26.7 -67.71,11 -21.71,-15.7 -26.63,-46 -10.99,-67.7 15.68,-21.7 45.99,-26.6 67.72,-11"
           style="fill:url(#linearGradient527);fill-opacity:1;fill-rule:nonzero;stroke:none"
           id="path529" /></g></g><g
       transform="scale(0.1)"
       id="g531"><g
         id="g533"
         clip-path="url(#clipPath537)"><path
           d="m 1646.89,1090.9 c 26.89,19.4 32.98,56.9 13.59,83.8 -19.38,26.9 -56.9,33 -83.78,13.6 -26.89,-19.4 -32.97,-56.9 -13.58,-83.8 19.37,-26.9 56.9,-33 83.77,-13.6"
           style="fill:url(#linearGradient545);fill-opacity:1;fill-rule:nonzero;stroke:none"
           id="path547" /></g></g><g
       transform="scale(0.1)"
       id="g549"><g
         id="g551"
         clip-path="url(#clipPath555)"><path
           d="m 1695.89,1026.8 c 28.42,20.5 68.09,14.1 88.59,-14.3 20.49,-28.5 14.06,-68.199 -14.39,-88.699 -28.42,-20.403 -68.08,-14 -88.58,14.398 -20.49,28.5 -14.05,68.101 14.38,88.601"
           style="fill:url(#linearGradient563);fill-opacity:1;fill-rule:nonzero;stroke:none"
           id="path565" /></g></g></g></svg>