<?xml version="1.0" encoding="UTF-8" standalone="no"?>
<svg
   xmlns:dc="http://purl.org/dc/elements/1.1/"
   xmlns:cc="http://creativecommons.org/ns#"
   xmlns:rdf="http://www.w3.org/1999/02/22-rdf-syntax-ns#"
   xmlns:svg="http://www.w3.org/2000/svg"
   xmlns="http://www.w3.org/2000/svg"
   xmlns:sodipodi="http://sodipodi.sourceforge.net/DTD/sodipodi-0.dtd"
   xmlns:inkscape="http://www.inkscape.org/namespaces/inkscape"
   inkscape:version="1.0 (4035a4f, 2020-05-01)"
   sodipodi:docname="voltha.svg"
   version="1.1"
   id="svg2"
   xml:space="preserve"
   width="116.908"
   height="116.77467"
   viewBox="0 0 116.908 116.77463"><sodipodi:namedview
     inkscape:current-layer="svg2"
     inkscape:window-maximized="0"
     inkscape:window-y="0"
     inkscape:window-x="0"
     inkscape:cy="104.63056"
     inkscape:cx="54.816001"
     inkscape:zoom="2.1048659"
     fit-margin-bottom="24.5"
     fit-margin-right="4"
     fit-margin-left="4"
     fit-margin-top="24.5"
     showgrid="false"
     id="namedview310"
     inkscape:window-height="1141"
     inkscape:window-width="1712"
     inkscape:pageshadow="2"
     inkscape:pageopacity="0"
     guidetolerance="10"
     gridtolerance="10"
     objecttolerance="10"
     borderopacity="1"
     bordercolor="#666666"
     pagecolor="#ffffff" /><metadata
     id="metadata8"><rdf:RDF><cc:Work
         rdf:about=""><dc:format>image/svg+xml</dc:format><dc:type
           rdf:resource="http://purl.org/dc/dcmitype/StillImage" /><dc:title></dc:title></cc:Work></rdf:RDF></metadata><defs
     id="defs6"><clipPath
       clipPathUnits="userSpaceOnUse"
       id="clipPath80"><path
         d="m 1209.63,304.602 c 12.17,6.91 21.72,15.359 28.66,25.328 6.92,9.968 11.63,20.91 14.12,32.82 2.49,11.898 3.74,22.852 3.74,32.809 0,9.972 -1.25,20.91 -3.74,32.832 -2.49,11.898 -7.2,22.847 -14.12,32.808 -6.94,9.973 -16.49,18.41 -28.66,25.34 -12.19,6.91 -27.7,10.383 -46.53,10.383 H 827.461 c -19.387,0 -35.031,-3.473 -46.938,-10.383 -11.918,-6.93 -21.328,-15.367 -28.246,-25.34 -6.929,-9.961 -11.632,-20.91 -14.125,-32.808 -2.492,-11.922 -3.738,-22.86 -3.738,-32.832 0,-9.957 1.246,-20.911 3.738,-32.809 2.493,-11.91 7.196,-22.852 14.125,-32.82 6.918,-9.969 16.328,-18.418 28.246,-25.328 11.907,-6.942 27.551,-10.383 46.938,-10.383 H 1163.1 c 18.83,0 34.34,3.441 46.53,10.383 z m 123.78,90.957 c 0,-21.047 -3.47,-42.227 -10.38,-63.547 -6.94,-21.332 -17.03,-40.703 -30.32,-58.153 -13.3,-17.461 -29.37,-31.718 -48.19,-42.789 -18.84,-11.082 -40.17,-16.621 -63.98,-16.621 H 801.711 c -22.719,1.102 -42.93,7.34 -60.648,18.699 -17.731,11.34 -32.821,25.614 -45.278,42.774 -12.465,17.18 -22.015,36.277 -28.664,57.34 -6.644,21.039 -9.965,41.808 -9.965,62.297 0,21.05 3.449,42.242 10.379,63.57 6.918,21.312 17.035,40.699 30.324,58.141 13.293,17.449 29.348,31.699 48.188,42.789 18.82,11.082 40.152,16.632 63.973,16.632 h 378.83 c 22.71,-1.14 42.92,-7.363 60.65,-18.711 17.72,-11.351 32.82,-25.621 45.28,-42.789 12.46,-17.171 22.01,-36.273 28.66,-57.312 6.64,-21.059 9.97,-41.828 9.97,-62.32 z"
         id="path78" /></clipPath><linearGradient
       x1="0"
       y1="0"
       x2="1"
       y2="0"
       gradientUnits="userSpaceOnUse"
       gradientTransform="matrix(676.259,0,0,-676.259,657.153,395.57)"
       spreadMethod="pad"
       id="linearGradient86"><stop
         style="stop-opacity:1;stop-color:#263e7f"
         offset="0"
         id="stop82" /><stop
         style="stop-opacity:1;stop-color:#3779c6"
         offset="1"
         id="stop84" /></linearGradient><clipPath
       clipPathUnits="userSpaceOnUse"
       id="clipPath98"><path
         d="m 2485.68,565.051 c 7.75,-7.77 11.63,-17.18 11.63,-28.262 0,-11.078 -3.88,-20.488 -11.63,-28.238 -7.76,-7.75 -17.17,-11.629 -28.25,-11.629 H 2211.52 V 254.328 c 0,-11.09 -3.88,-20.496 -11.63,-28.25 -7.76,-7.746 -17.18,-11.629 -28.24,-11.629 -11.09,0 -20.5,3.883 -28.26,11.629 -7.75,7.754 -11.63,17.16 -11.63,28.25 v 242.594 h -249.23 c -9.97,1.098 -18.56,5.398 -25.75,12.879 -7.2,7.469 -10.8,16.469 -10.8,26.988 0,11.082 3.86,20.492 11.63,28.262 7.75,7.75 17.16,11.64 28.25,11.64 h 571.57 c 11.08,0 20.49,-3.89 28.25,-11.64 z"
         id="path96" /></clipPath><linearGradient
       x1="0"
       y1="0"
       x2="1"
       y2="0"
       gradientUnits="userSpaceOnUse"
       gradientTransform="matrix(651.331,0,0,-651.331,1845.98,395.57)"
       spreadMethod="pad"
       id="linearGradient106"><stop
         style="stop-opacity:1;stop-color:#3779c6"
         offset="0"
         id="stop100" /><stop
         style="stop-opacity:1;stop-color:#3779c6"
         offset="0.0996414"
         id="stop102" /><stop
         style="stop-opacity:1;stop-color:#3779c6"
         offset="1"
         id="stop104" /></linearGradient><clipPath
       clipPathUnits="userSpaceOnUse"
       id="clipPath116"><path
         d="m 3219.24,226.078 c -7.75,-7.746 -17.16,-11.629 -28.24,-11.629 -11.08,0 -20.5,3.883 -28.24,11.629 -7.77,7.754 -11.64,17.16 -11.64,28.25 V 355.691 H 2660.13 V 254.328 c 0,-11.09 -3.87,-20.496 -11.63,-28.25 -7.76,-7.746 -17.17,-11.629 -28.24,-11.629 -11.09,0 -20.5,3.883 -28.25,11.629 -7.77,7.754 -11.63,17.16 -11.63,28.25 v 282.461 c 0,11.082 3.86,20.492 11.63,28.262 7.75,7.75 17.16,11.64 28.25,11.64 11.07,0 20.48,-3.89 28.24,-11.64 7.76,-7.77 11.63,-17.18 11.63,-28.262 v -101.34 h 490.99 v 101.34 c 0,11.082 3.87,20.492 11.64,28.262 7.74,7.75 17.16,11.64 28.24,11.64 11.08,0 20.49,-3.89 28.24,-11.64 7.76,-7.77 11.64,-17.18 11.64,-28.262 V 254.328 c 0,-11.09 -3.88,-20.496 -11.64,-28.25 z"
         id="path114" /></clipPath><linearGradient
       x1="0"
       y1="0"
       x2="1"
       y2="0"
       gradientUnits="userSpaceOnUse"
       gradientTransform="matrix(650.5,0,0,-650.5,2580.38,395.57)"
       spreadMethod="pad"
       id="linearGradient122"><stop
         style="stop-opacity:1;stop-color:#3475c1"
         offset="0"
         id="stop118" /><stop
         style="stop-opacity:1;stop-color:#63b5e4"
         offset="1"
         id="stop120" /></linearGradient><clipPath
       clipPathUnits="userSpaceOnUse"
       id="clipPath134"><path
         d="m 1666.16,940.148 -9.04,30.653 304.93,89.959 9.04,-30.64 z"
         id="path132" /></clipPath><linearGradient
       x1="0"
       y1="0"
       x2="1"
       y2="0"
       gradientUnits="userSpaceOnUse"
       gradientTransform="matrix(313.978,0,0,-313.978,1657.12,1000.46)"
       spreadMethod="pad"
       id="linearGradient140"><stop
         style="stop-opacity:1;stop-color:#c81e27"
         offset="0"
         id="stop136" /><stop
         style="stop-opacity:1;stop-color:#77151b"
         offset="1"
         id="stop138" /></linearGradient><clipPath
       clipPathUnits="userSpaceOnUse"
       id="clipPath150"><path
         d="m 1614.51,723.539 -8.8,30.723 669.8,191.75 -647.82,190.818 9.02,30.66 753.38,-221.92 z"
         id="path148" /></clipPath><linearGradient
       x1="0"
       y1="0"
       x2="1"
       y2="0"
       gradientUnits="userSpaceOnUse"
       gradientTransform="matrix(784.383,-1e-7,-1e-7,-784.383,1605.71,945.52)"
       spreadMethod="pad"
       id="linearGradient156"><stop
         style="stop-opacity:1;stop-color:#c81e27"
         offset="0"
         id="stop152" /><stop
         style="stop-opacity:1;stop-color:#77151b"
         offset="1"
         id="stop154" /></linearGradient><clipPath
       clipPathUnits="userSpaceOnUse"
       id="clipPath166"><path
         d="m 1923.06,1051.2 c 0,-27.8 22.54,-50.32 50.33,-50.32 27.79,0 50.33,22.52 50.33,50.32 0,27.8 -22.54,50.33 -50.33,50.33 -27.79,0 -50.33,-22.53 -50.33,-50.33 z"
         id="path164" /></clipPath><radialGradient
       fx="0"
       fy="0"
       cx="0"
       cy="0"
       r="1"
       gradientUnits="userSpaceOnUse"
       gradientTransform="matrix(-50.3263,0,0,-50.3263,1973.39,1051.2)"
       spreadMethod="pad"
       id="radialGradient174"><stop
         style="stop-opacity:1;stop-color:#d53130"
         offset="0"
         id="stop168" /><stop
         style="stop-opacity:1;stop-color:#9f1c22"
         offset="0.867953"
         id="stop170" /><stop
         style="stop-opacity:1;stop-color:#9f1c22"
         offset="1"
         id="stop172" /></radialGradient><clipPath
       clipPathUnits="userSpaceOnUse"
       id="clipPath184"><path
         d="m 1923.37,839.102 c 0,-27.793 22.52,-50.332 50.32,-50.332 27.8,0 50.32,22.539 50.32,50.332 0,27.789 -22.52,50.32 -50.32,50.32 -27.8,0 -50.32,-22.531 -50.32,-50.32 z"
         id="path182" /></clipPath><radialGradient
       fx="0"
       fy="0"
       cx="0"
       cy="0"
       r="1"
       gradientUnits="userSpaceOnUse"
       gradientTransform="matrix(-50.3263,0,0,-50.3263,1973.69,839.1)"
       spreadMethod="pad"
       id="radialGradient192"><stop
         style="stop-opacity:1;stop-color:#d53130"
         offset="0"
         id="stop186" /><stop
         style="stop-opacity:1;stop-color:#9f1c22"
         offset="0.867953"
         id="stop188" /><stop
         style="stop-opacity:1;stop-color:#9f1c22"
         offset="1"
         id="stop190" /></radialGradient><clipPath
       clipPathUnits="userSpaceOnUse"
       id="clipPath202"><path
         d="m 1573.58,1151.65 c 0,-27.81 22.53,-50.34 50.33,-50.34 27.79,0 50.32,22.53 50.32,50.34 0,27.79 -22.53,50.32 -50.32,50.32 -27.8,0 -50.33,-22.53 -50.33,-50.32 z"
         id="path200" /></clipPath><radialGradient
       fx="0"
       fy="0"
       cx="0"
       cy="0"
       r="1"
       gradientUnits="userSpaceOnUse"
       gradientTransform="matrix(-50.3263,0,0,-50.3263,1623.91,1151.64)"
       spreadMethod="pad"
       id="radialGradient210"><stop
         style="stop-opacity:1;stop-color:#d53130"
         offset="0"
         id="stop204" /><stop
         style="stop-opacity:1;stop-color:#d53130"
         offset="0.153011"
         id="stop206" /><stop
         style="stop-opacity:1;stop-color:#9f1c22"
         offset="1"
         id="stop208" /></radialGradient><clipPath
       clipPathUnits="userSpaceOnUse"
       id="clipPath220"><path
         d="m 1573.58,949.461 c 0,-27.789 22.53,-50.32 50.33,-50.32 27.79,0 50.32,22.531 50.32,50.32 0,27.789 -22.53,50.328 -50.32,50.328 -27.8,0 -50.33,-22.539 -50.33,-50.328 z"
         id="path218" /></clipPath><radialGradient
       fx="0"
       fy="0"
       cx="0"
       cy="0"
       r="1"
       gradientUnits="userSpaceOnUse"
       gradientTransform="matrix(-50.3263,0,0,-50.3263,1623.91,949.46)"
       spreadMethod="pad"
       id="radialGradient228"><stop
         style="stop-opacity:1;stop-color:#d53130"
         offset="0"
         id="stop222" /><stop
         style="stop-opacity:1;stop-color:#d53130"
         offset="0.153011"
         id="stop224" /><stop
         style="stop-opacity:1;stop-color:#9f1c22"
         offset="1"
         id="stop226" /></radialGradient><clipPath
       clipPathUnits="userSpaceOnUse"
       id="clipPath238"><path
         d="m 1573.28,743.98 c 0,-27.789 22.53,-50.32 50.32,-50.32 27.8,0 50.33,22.531 50.33,50.32 0,27.79 -22.53,50.329 -50.33,50.329 -27.79,0 -50.32,-22.539 -50.32,-50.329 z"
         id="path236" /></clipPath><radialGradient
       fx="0"
       fy="0"
       cx="0"
       cy="0"
       r="1"
       gradientUnits="userSpaceOnUse"
       gradientTransform="matrix(-50.3263,0,0,-50.3263,1623.61,743.98)"
       spreadMethod="pad"
       id="radialGradient246"><stop
         style="stop-opacity:1;stop-color:#d53130"
         offset="0"
         id="stop240" /><stop
         style="stop-opacity:1;stop-color:#d53130"
         offset="0.153011"
         id="stop242" /><stop
         style="stop-opacity:1;stop-color:#9f1c22"
         offset="1"
         id="stop244" /></radialGradient><clipPath
       clipPathUnits="userSpaceOnUse"
       id="clipPath256"><path
         d="m 2244.83,952.422 c 0,-39.711 32.19,-71.902 71.9,-71.902 39.7,0 71.89,32.191 71.89,71.902 0,39.707 -32.19,71.888 -71.89,71.888 -39.71,0 -71.9,-32.181 -71.9,-71.888 z"
         id="path254" /></clipPath><radialGradient
       fx="0"
       fy="0"
       cx="0"
       cy="0"
       r="1"
       gradientUnits="userSpaceOnUse"
       gradientTransform="matrix(-71.8947,0,0,-71.8947,2316.73,952.42)"
       spreadMethod="pad"
       id="radialGradient262"><stop
         style="stop-opacity:1;stop-color:#9f1c22"
         offset="0"
         id="stop258" /><stop
         style="stop-opacity:1;stop-color:#77151b"
         offset="1"
         id="stop260" /></radialGradient></defs><g
     transform="matrix(0.13333333,0,0,-0.13333333,-205.77066,184.76266)"
     id="g128"><g
       id="g130"
       clip-path="url(#clipPath134)"><path
         d="m 1666.16,940.148 -9.04,30.653 304.93,89.959 9.04,-30.64 -304.93,-89.972"
         style="fill:url(#linearGradient140);fill-opacity:1;fill-rule:nonzero;stroke:none"
         id="path142" /></g></g><g
     transform="matrix(0.13333333,0,0,-0.13333333,-205.77066,184.76266)"
     id="g144"><g
       id="g146"
       clip-path="url(#clipPath150)"><path
         d="m 1614.51,723.539 -8.8,30.723 669.8,191.75 -647.82,190.818 9.02,30.66 753.38,-221.92 -775.58,-222.031"
         style="fill:url(#linearGradient156);fill-opacity:1;fill-rule:nonzero;stroke:none"
         id="path158" /></g></g><g
     transform="matrix(0.13333333,0,0,-0.13333333,-205.77066,184.76266)"
     id="g160"><g
       id="g162"
       clip-path="url(#clipPath166)"><path
         d="m 1923.06,1051.2 c 0,-27.8 22.54,-50.32 50.33,-50.32 27.79,0 50.33,22.52 50.33,50.32 0,27.8 -22.54,50.33 -50.33,50.33 -27.79,0 -50.33,-22.53 -50.33,-50.33"
         style="fill:url(#radialGradient174);fill-opacity:1;fill-rule:nonzero;stroke:none"
         id="path176" /></g></g><g
     transform="matrix(0.13333333,0,0,-0.13333333,-205.77066,184.76266)"
     id="g178"><g
       id="g180"
       clip-path="url(#clipPath184)"><path
         d="m 1923.37,839.102 c 0,-27.793 22.52,-50.332 50.32,-50.332 27.8,0 50.32,22.539 50.32,50.332 0,27.789 -22.52,50.32 -50.32,50.32 -27.8,0 -50.32,-22.531 -50.32,-50.32"
         style="fill:url(#radialGradient192);fill-opacity:1;fill-rule:nonzero;stroke:none"
         id="path194" /></g></g><g
     transform="matrix(0.13333333,0,0,-0.13333333,-205.77066,184.76266)"
     id="g196"><g
       id="g198"
       clip-path="url(#clipPath202)"><path
         d="m 1573.58,1151.65 c 0,-27.81 22.53,-50.34 50.33,-50.34 27.79,0 50.32,22.53 50.32,50.34 0,27.79 -22.53,50.32 -50.32,50.32 -27.8,0 -50.33,-22.53 -50.33,-50.32"
         style="fill:url(#radialGradient210);fill-opacity:1;fill-rule:nonzero;stroke:none"
         id="path212" /></g></g><g
     transform="matrix(0.13333333,0,0,-0.13333333,-205.77066,184.76266)"
     id="g214"><g
       id="g216"
       clip-path="url(#clipPath220)"><path
         d="m 1573.58,949.461 c 0,-27.789 22.53,-50.32 50.33,-50.32 27.79,0 50.32,22.531 50.32,50.32 0,27.789 -22.53,50.328 -50.32,50.328 -27.8,0 -50.33,-22.539 -50.33,-50.328"
         style="fill:url(#radialGradient228);fill-opacity:1;fill-rule:nonzero;stroke:none"
         id="path230" /></g></g><g
     transform="matrix(0.13333333,0,0,-0.13333333,-205.77066,184.76266)"
     id="g232"><g
       id="g234"
       clip-path="url(#clipPath238)"><path
         d="m 1573.28,743.98 c 0,-27.789 22.53,-50.32 50.32,-50.32 27.8,0 50.33,22.531 50.33,50.32 0,27.79 -22.53,50.329 -50.33,50.329 -27.79,0 -50.32,-22.539 -50.32,-50.329"
         style="fill:url(#radialGradient246);fill-opacity:1;fill-rule:nonzero;stroke:none"
         id="path248" /></g></g><g
     transform="matrix(0.13333333,0,0,-0.13333333,-205.77066,184.76266)"
     id="g250"><g
       id="g252"
       clip-path="url(#clipPath256)"><path
         d="m 2244.83,952.422 c 0,-39.711 32.19,-71.902 71.9,-71.902 39.7,0 71.89,32.191 71.89,71.902 0,39.707 -32.19,71.888 -71.89,71.888 -39.71,0 -71.9,-32.181 -71.9,-71.888"
         style="fill:url(#radialGradient262);fill-opacity:1;fill-rule:nonzero;stroke:none"
         id="path264" /></g></g></svg>
